<svg width="80" height="95" viewBox="0 0 80 95" fill="none" xmlns="http://www.w3.org/2000/svg">
<path d="M47.3192 4.56H49.6082C64.4193 4.56 71.3157 12.3055 74.1924 32.965L78.785 32.7631L78.1675 0H2.83251L2.09329 32.7631L6.49892 32.965C7.27079 25.2195 8.18517 21.0425 10.1802 16.8863C13.6922 9.14078 21.0191 4.56 30.0471 4.56H33.2503V75.8575C33.2503 83.4011 32.8021 85.785 30.9614 87.5781C29.4296 88.9705 26.3866 89.5583 22.8597 89.5583H19.3477V94.3202H61.2189V89.5583H57.695C54.2008 89.5583 51.1252 88.9734 49.6082 87.5781C47.7824 85.785 47.3192 83.4011 47.3192 75.8575V4.56ZM0.917664 43.0469H20.2294V62.3289H0.917664V43.0469ZM60.0314 43.0469H79.3402V62.3289H60.0314V43.0469Z" fill="#5DECCC"/>
</svg>
